<?xml version="1.0" encoding="UTF-8"?>
<svg xmlns="http://www.w3.org/2000/svg" xmlns:xlink="http://www.w3.org/1999/xlink" width="75pt" height="75pt" viewBox="0 0 75 75" version="1.1">
<g id="surface2830">
<path style=" stroke:none;fill-rule:nonzero;fill:rgb(47.058824%,62.7451%,81.176472%);fill-opacity:1;" d="M 11.25 21.75 C 11.25 22.578125 10.578125 23.25 9.75 23.25 C 8.921875 23.25 8.25 22.578125 8.25 21.75 C 8.25 20.921875 8.921875 20.25 9.75 20.25 C 10.578125 20.25 11.25 20.921875 11.25 21.75 Z M 11.25 21.75 "/>
<path style=" stroke:none;fill-rule:nonzero;fill:rgb(94.509804%,73.725492%,9.803922%);fill-opacity:1;" d="M 58.5 9.75 C 58.5 10.164062 58.164062 10.5 57.75 10.5 C 57.335938 10.5 57 10.164062 57 9.75 C 57 9.335938 57.335938 9 57.75 9 C 58.164062 9 58.5 9.335938 58.5 9.75 Z M 58.5 9.75 "/>
<path style=" stroke:none;fill-rule:nonzero;fill:rgb(80.784315%,88.235295%,95.686275%);fill-opacity:1;" d="M 65.25 37.5 C 65.25 52.824219 52.824219 65.25 37.5 65.25 C 22.175781 65.25 9.75 52.824219 9.75 37.5 C 9.75 22.175781 22.175781 9.75 37.5 9.75 C 52.824219 9.75 65.25 22.175781 65.25 37.5 Z M 65.25 37.5 "/>
<path style=" stroke:none;fill-rule:nonzero;fill:rgb(94.509804%,73.725492%,9.803922%);fill-opacity:1;" d="M 65.25 11.25 C 65.25 12.90625 63.90625 14.25 62.25 14.25 C 60.59375 14.25 59.25 12.90625 59.25 11.25 C 59.25 9.59375 60.59375 8.25 62.25 8.25 C 63.90625 8.25 65.25 9.59375 65.25 11.25 Z M 65.25 11.25 "/>
<path style=" stroke:none;fill-rule:nonzero;fill:rgb(47.058824%,62.7451%,81.176472%);fill-opacity:1;" d="M 66.75 18 C 66.75 18.828125 66.078125 19.5 65.25 19.5 C 64.421875 19.5 63.75 18.828125 63.75 18 C 63.75 17.171875 64.421875 16.5 65.25 16.5 C 66.078125 16.5 66.75 17.171875 66.75 18 Z M 66.75 18 "/>
<path style=" stroke:none;fill-rule:nonzero;fill:rgb(98.431373%,80.392158%,34.901962%);fill-opacity:1;" d="M 62.25 57 C 62.25 57.828125 61.578125 58.5 60.75 58.5 C 59.921875 58.5 59.25 57.828125 59.25 57 C 59.25 56.171875 59.921875 55.5 60.75 55.5 C 61.578125 55.5 62.25 56.171875 62.25 57 Z M 62.25 57 "/>
<path style=" stroke:none;fill-rule:nonzero;fill:rgb(98.431373%,80.392158%,34.901962%);fill-opacity:1;" d="M 14.25 47.25 C 14.25 48.90625 12.90625 50.25 11.25 50.25 C 9.59375 50.25 8.25 48.90625 8.25 47.25 C 8.25 45.59375 9.59375 44.25 11.25 44.25 C 12.90625 44.25 14.25 45.59375 14.25 47.25 Z M 14.25 47.25 "/>
<path style=" stroke:none;fill-rule:nonzero;fill:rgb(47.058824%,62.7451%,81.176472%);fill-opacity:1;" d="M 20.25 65.25 C 20.25 66.078125 19.578125 66.75 18.75 66.75 C 17.921875 66.75 17.25 66.078125 17.25 65.25 C 17.25 64.421875 17.921875 63.75 18.75 63.75 C 19.578125 63.75 20.25 64.421875 20.25 65.25 Z M 20.25 65.25 "/>
<path style=" stroke:none;fill-rule:nonzero;fill:rgb(100%,100%,100%);fill-opacity:1;" d="M 15.75 40.125 C 15.75 41.160156 14.910156 42 13.875 42 C 12.839844 42 12 41.160156 12 40.125 C 12 39.089844 12.839844 38.25 13.875 38.25 C 14.910156 38.25 15.75 39.089844 15.75 40.125 Z M 15.75 40.125 "/>
<path style=" stroke:none;fill-rule:nonzero;fill:rgb(94.509804%,73.725492%,9.803922%);fill-opacity:1;" d="M 16.5 50.25 C 16.5 50.664062 16.164062 51 15.75 51 C 15.335938 51 15 50.664062 15 50.25 C 15 49.835938 15.335938 49.5 15.75 49.5 C 16.164062 49.5 16.5 49.835938 16.5 50.25 Z M 16.5 50.25 "/>
<path style=" stroke:none;fill-rule:nonzero;fill:rgb(100%,100%,100%);fill-opacity:1;" d="M 60.75 25.5 C 60.75 25.914062 60.414062 26.25 60 26.25 C 59.585938 26.25 59.25 25.914062 59.25 25.5 C 59.25 25.085938 59.585938 24.75 60 24.75 C 60.414062 24.75 60.75 25.085938 60.75 25.5 Z M 60.75 25.5 "/>
<path style=" stroke:none;fill-rule:nonzero;fill:rgb(94.509804%,73.725492%,9.803922%);fill-opacity:1;" d="M 53.753906 33.957031 C 53.753906 39.5625 49.207031 44.109375 43.601562 44.109375 C 37.992188 44.109375 33.449219 39.5625 33.449219 33.957031 C 33.449219 28.347656 37.992188 23.804688 43.601562 23.804688 C 49.207031 23.804688 53.753906 28.347656 53.753906 33.957031 Z M 53.753906 33.957031 "/>
<path style=" stroke:none;fill-rule:nonzero;fill:rgb(27.843139%,16.862746%,16.078432%);fill-opacity:1;" d="M 53.546875 36.378906 C 53.523438 36.378906 53.496094 36.375 53.472656 36.371094 C 53.269531 36.328125 53.136719 36.128906 53.179688 35.925781 C 53.3125 35.285156 53.378906 34.621094 53.378906 33.957031 C 53.378906 28.566406 48.992188 24.179688 43.601562 24.179688 C 40.585938 24.179688 37.78125 25.539062 35.914062 27.914062 C 35.789062 28.074219 35.550781 28.105469 35.390625 27.976562 C 35.226562 27.847656 35.199219 27.613281 35.324219 27.449219 C 37.335938 24.894531 40.351562 23.429688 43.601562 23.429688 C 49.40625 23.429688 54.128906 28.152344 54.128906 33.957031 C 54.128906 34.671875 54.054688 35.386719 53.914062 36.078125 C 53.878906 36.253906 53.722656 36.378906 53.546875 36.378906 Z M 53.546875 36.378906 "/>
<path style=" stroke:none;fill-rule:nonzero;fill:rgb(94.509804%,73.725492%,9.803922%);fill-opacity:1;" d="M 46.230469 27.46875 C 47.074219 27.824219 47.835938 28.339844 48.472656 28.976562 "/>
<path style=" stroke:none;fill-rule:nonzero;fill:rgb(27.843139%,16.862746%,16.078432%);fill-opacity:1;" d="M 48.472656 29.351562 C 48.375 29.351562 48.28125 29.316406 48.207031 29.242188 C 47.59375 28.632812 46.878906 28.148438 46.085938 27.816406 C 45.894531 27.734375 45.804688 27.515625 45.886719 27.324219 C 45.964844 27.132812 46.1875 27.046875 46.378906 27.125 C 47.261719 27.496094 48.054688 28.03125 48.738281 28.714844 C 48.882812 28.859375 48.882812 29.097656 48.738281 29.242188 C 48.664062 29.316406 48.570312 29.351562 48.472656 29.351562 Z M 48.472656 29.351562 "/>
<path style=" stroke:none;fill-rule:nonzero;fill:rgb(94.509804%,73.725492%,9.803922%);fill-opacity:1;" d="M 37.941406 29.609375 C 39.230469 27.96875 41.238281 26.914062 43.488281 26.914062 "/>
<path style=" stroke:none;fill-rule:nonzero;fill:rgb(27.843139%,16.862746%,16.078432%);fill-opacity:1;" d="M 37.941406 29.984375 C 37.859375 29.984375 37.777344 29.957031 37.707031 29.902344 C 37.546875 29.777344 37.519531 29.539062 37.644531 29.378906 C 39.066406 27.574219 41.195312 26.539062 43.488281 26.539062 C 43.695312 26.539062 43.863281 26.710938 43.863281 26.914062 C 43.863281 27.121094 43.695312 27.289062 43.488281 27.289062 C 41.425781 27.289062 39.511719 28.21875 38.234375 29.839844 C 38.160156 29.933594 38.050781 29.984375 37.941406 29.984375 Z M 37.941406 29.984375 "/>
<path style=" stroke:none;fill-rule:nonzero;fill:rgb(28.235295%,74.509805%,84.705883%);fill-opacity:1;" d="M 22.546875 48.976562 C 20.0625 48.976562 18.039062 46.816406 18.039062 44.160156 C 18.039062 41.503906 20.0625 39.34375 22.546875 39.34375 C 22.871094 39.34375 23.203125 39.382812 23.539062 39.464844 L 24.167969 39.617188 L 24.1875 38.96875 C 24.332031 34.117188 28.015625 30.3125 32.574219 30.3125 C 35.78125 30.3125 38.660156 32.21875 40.09375 35.285156 L 40.449219 36.042969 L 40.976562 35.394531 C 42.117188 33.992188 43.765625 33.191406 45.496094 33.191406 C 48.589844 33.191406 51.214844 35.761719 51.464844 39.046875 L 51.515625 39.6875 L 52.132812 39.515625 C 52.527344 39.402344 52.917969 39.347656 53.296875 39.347656 C 54.496094 39.347656 55.625 39.84375 56.476562 40.746094 C 57.335938 41.65625 57.808594 42.867188 57.808594 44.160156 C 57.808594 46.816406 55.785156 48.976562 53.296875 48.976562 Z M 22.546875 48.976562 "/>
<path style=" stroke:none;fill-rule:nonzero;fill:rgb(27.843139%,16.862746%,16.078432%);fill-opacity:1;" d="M 32.574219 30.839844 C 35.574219 30.839844 38.273438 32.628906 39.617188 35.507812 L 40.328125 37.023438 L 41.382812 35.726562 C 42.425781 34.449219 43.925781 33.714844 45.496094 33.714844 C 48.320312 33.714844 50.710938 36.074219 50.941406 39.089844 L 51.042969 40.371094 L 52.277344 40.019531 C 52.621094 39.917969 52.964844 39.871094 53.296875 39.871094 C 54.351562 39.871094 55.34375 40.308594 56.09375 41.105469 C 56.863281 41.917969 57.285156 43.003906 57.285156 44.160156 C 57.285156 46.527344 55.496094 48.449219 53.296875 48.449219 L 22.546875 48.449219 C 20.351562 48.449219 18.5625 46.527344 18.5625 44.160156 C 18.5625 41.796875 20.351562 39.871094 22.546875 39.871094 C 22.832031 39.871094 23.125 39.90625 23.417969 39.976562 L 24.671875 40.28125 L 24.710938 38.988281 C 24.847656 34.417969 28.300781 30.839844 32.574219 30.839844 M 32.574219 29.789062 C 27.742188 29.789062 23.8125 33.867188 23.660156 38.953125 C 23.300781 38.867188 22.929688 38.820312 22.546875 38.820312 C 19.765625 38.820312 17.511719 41.210938 17.511719 44.160156 C 17.511719 47.109375 19.765625 49.5 22.546875 49.5 C 22.871094 49.5 52.972656 49.5 53.296875 49.5 C 56.078125 49.5 58.335938 47.109375 58.335938 44.160156 C 58.335938 41.210938 56.082031 38.820312 53.300781 38.820312 C 52.847656 38.820312 52.410156 38.886719 51.992188 39.007812 C 51.71875 35.457031 48.917969 32.664062 45.5 32.664062 C 43.527344 32.664062 41.765625 33.59375 40.570312 35.0625 C 39.109375 31.941406 36.082031 29.789062 32.574219 29.789062 Z M 32.574219 29.789062 "/>
<path style=" stroke:none;fill-rule:nonzero;fill:rgb(27.843139%,16.862746%,16.078432%);fill-opacity:1;" d="M 45.375 46.5 L 43.125 46.5 C 42.917969 46.5 42.75 46.332031 42.75 46.125 C 42.75 45.917969 42.917969 45.75 43.125 45.75 L 45.375 45.75 C 45.582031 45.75 45.75 45.917969 45.75 46.125 C 45.75 46.332031 45.582031 46.5 45.375 46.5 Z M 45.375 46.5 "/>
<path style=" stroke:none;fill-rule:nonzero;fill:rgb(27.843139%,16.862746%,16.078432%);fill-opacity:1;" d="M 40.125 46.5 L 22.875 46.5 C 22.667969 46.5 22.5 46.332031 22.5 46.125 C 22.5 45.917969 22.667969 45.75 22.875 45.75 L 40.125 45.75 C 40.332031 45.75 40.5 45.917969 40.5 46.125 C 40.5 46.332031 40.332031 46.5 40.125 46.5 Z M 40.125 46.5 "/>
<path style=" stroke:none;fill-rule:nonzero;fill:rgb(27.843139%,16.862746%,16.078432%);fill-opacity:1;" d="M 50.625 46.5 L 47.625 46.5 C 47.417969 46.5 47.25 46.332031 47.25 46.125 C 47.25 45.917969 47.417969 45.75 47.625 45.75 L 50.625 45.75 C 50.832031 45.75 51 45.917969 51 46.125 C 51 46.332031 50.832031 46.5 50.625 46.5 Z M 50.625 46.5 "/>
<path style=" stroke:none;fill-rule:nonzero;fill:rgb(27.843139%,16.862746%,16.078432%);fill-opacity:1;" d="M 43.875 21.75 C 43.667969 21.75 43.5 21.582031 43.5 21.375 L 43.5 16.875 C 43.5 16.667969 43.667969 16.5 43.875 16.5 C 44.082031 16.5 44.25 16.667969 44.25 16.875 L 44.25 21.375 C 44.25 21.582031 44.082031 21.75 43.875 21.75 Z M 43.875 21.75 "/>
<path style=" stroke:none;fill-rule:nonzero;fill:rgb(27.843139%,16.862746%,16.078432%);fill-opacity:1;" d="M 61.125 36 L 56.625 36 C 56.417969 36 56.25 35.832031 56.25 35.625 C 56.25 35.417969 56.417969 35.25 56.625 35.25 L 61.125 35.25 C 61.332031 35.25 61.5 35.417969 61.5 35.625 C 61.5 35.832031 61.332031 36 61.125 36 Z M 61.125 36 "/>
<path style=" stroke:none;fill-rule:nonzero;fill:rgb(27.843139%,16.862746%,16.078432%);fill-opacity:1;" d="M 52.570312 26.015625 C 52.472656 26.015625 52.378906 25.976562 52.304688 25.902344 C 52.15625 25.757812 52.15625 25.519531 52.304688 25.375 L 55.515625 22.160156 C 55.664062 22.015625 55.902344 22.015625 56.046875 22.160156 C 56.195312 22.308594 56.195312 22.546875 56.046875 22.691406 L 52.835938 25.902344 C 52.761719 25.976562 52.664062 26.015625 52.570312 26.015625 Z M 52.570312 26.015625 "/>
<path style=" stroke:none;fill-rule:nonzero;fill:rgb(27.843139%,16.862746%,16.078432%);fill-opacity:1;" d="M 35.792969 25.105469 C 35.695312 25.105469 35.597656 25.066406 35.527344 24.996094 L 32.3125 21.78125 C 32.167969 21.636719 32.167969 21.398438 32.3125 21.253906 C 32.460938 21.105469 32.695312 21.105469 32.84375 21.253906 L 36.054688 24.464844 C 36.203125 24.609375 36.203125 24.847656 36.054688 24.996094 C 35.984375 25.066406 35.886719 25.105469 35.792969 25.105469 Z M 35.792969 25.105469 "/>
</g>
</svg>
